<svg height='100px' width='100px'  fill="#000000" xmlns="http://www.w3.org/2000/svg" xmlns:xlink="http://www.w3.org/1999/xlink" version="1.1" x="0px" y="0px" viewBox="0 0 100 100" enable-background="new 0 0 100 100" xml:space="preserve"><g><path d="M50,5C25.188,5,5,25.187,5,50c0,24.812,20.188,45,45,45c24.812,0,45-20.188,45-45C95,25.187,74.812,5,50,5z M50,86.93   c-20.364,0-36.93-16.566-36.93-36.93c0-20.364,16.566-36.93,36.93-36.93c20.363,0,36.93,16.566,36.93,36.93   C86.93,70.362,70.361,86.93,50,86.93z"></path><g><path d="M64.497,30.666c-3.483,0-6.317,2.834-6.317,6.319c0,3.484,2.834,6.319,6.317,6.319c3.485,0,6.319-2.834,6.319-6.319    C70.816,33.5,67.982,30.666,64.497,30.666z"></path><path d="M35.501,30.666c-3.483,0-6.318,2.834-6.318,6.319c0,3.484,2.834,6.319,6.318,6.319c3.485,0,6.32-2.834,6.32-6.319    C41.822,33.5,38.986,30.666,35.501,30.666z"></path></g><path d="M72.418,65.128c-7.154-6.749-14.909-10.058-23.044-9.821c-12.792,0.387-21.601,9.602-21.971,9.992   c-1.518,1.617-1.44,4.172,0.174,5.695c1.553,1.465,4.23,1.389,5.697-0.157c0.29-0.303,7.205-7.448,16.834-7.448   c5.775,0,11.419,2.561,16.776,7.61c0.751,0.709,1.733,1.101,2.767,1.101c1.104,0,2.178-0.463,2.938-1.27   c0.739-0.784,1.13-1.809,1.098-2.887C73.652,66.868,73.204,65.867,72.418,65.128z"></path></g></svg>