<svg height='100px' width='100px'  fill="#000000" xmlns="http://www.w3.org/2000/svg" xmlns:xlink="http://www.w3.org/1999/xlink" version="1.1" x="0px" y="0px" viewBox="0 0 100 100" style="enable-background:new 0 0 100 100;" xml:space="preserve"><path d="M82.8,52.1c-4.4,0-8.2,2.5-10,6.2l-13.3-5.1c0.2-0.9,0.3-1.8,0.3-2.8c0-3.8-1.7-7.2-4.3-9.4l8.4-11c1.5,0.9,3.2,1.5,5.1,1.5  c5.2,0,9.5-4.3,9.5-9.5s-4.3-9.5-9.5-9.5s-9.5,4.3-9.5,9.5c0,2.8,1.2,5.2,3.1,7L54.1,40c-1.9-1.2-4.2-2-6.7-2  c-2.4,0-4.6,0.7-6.5,1.9l-5.7-9.4c2.7-1.9,4.5-5,4.5-8.5c0-5.7-4.6-10.4-10.4-10.4c-5.7,0-10.4,4.6-10.4,10.4s4.6,10.4,10.4,10.4  c1.6,0,3.1-0.4,4.4-1l5.8,9.5c-2.8,2.3-4.5,5.7-4.5,9.6c0,0.4,0,0.7,0.1,1.1l-13.6,2.2c-0.5-3.8-3.8-6.7-7.7-6.7  c-4.3,0-7.8,3.5-7.8,7.8c0,4.3,3.5,7.8,7.8,7.8c4.1,0,7.4-3.1,7.7-7.1l13.8-2.2c1.2,5.2,5.6,9.1,11,9.6l-0.7,8.4  c-0.6,0-1.2,0.1-1.7,0.2c-4.7,1-7.6,5.7-6.6,10.3c1,4.7,5.7,7.6,10.3,6.6c4.7-1,7.6-5.7,6.6-10.3c-0.8-3.5-3.6-6-6.9-6.6l0.7-8.5  c5.1-0.2,9.3-3.5,11-8l13.1,5.1c-0.3,1.1-0.5,2.2-0.5,3.4c0,6.2,5,11.2,11.2,11.2c6.2,0,11.2-5,11.2-11.2  C94.1,57.2,89,52.1,82.8,52.1z"></path></svg>